<mxfile host="app.diagrams.net" agent="Mozilla/5.0 (Windows NT 10.0; Win64; x64; rv:134.0) Gecko/20100101 Firefox/134.0" version="26.0.6">
  <diagram name="Page-1" id="_hcCIFpzmX3B0qdPerUi">
    <mxGraphModel>
      <root>
        <mxCell id="0" />
        <mxCell id="1" parent="0" />
        <mxCell id="2" value="Square Rect" style="whiteSpace=wrap;strokeWidth=2;" vertex="1" parent="1">
          <mxGeometry x="8" y="41" width="145" height="54" as="geometry" />
        </mxCell>
        <mxCell id="3" value="Circle" style="ellipse;aspect=fixed;strokeWidth=2;whiteSpace=wrap;" vertex="1" parent="1">
          <mxGeometry x="203" y="8" width="57" height="57" as="geometry" />
        </mxCell>
        <mxCell id="4" value="Rhombus" style="rhombus;strokeWidth=2;whiteSpace=wrap;" vertex="1" parent="1">
          <mxGeometry x="310" y="9" width="118" height="118" as="geometry" />
        </mxCell>
        <mxCell id="5" value="" style="curved=1;startArrow=none;endArrow=block;exitX=1;exitY=0.06;entryX=0;entryY=0.5;" edge="1" parent="1" source="2" target="3">
          <mxGeometry relative="1" as="geometry">
            <Array as="points">
              <mxPoint x="178" y="36" />
            </Array>
          </mxGeometry>
        </mxCell>
        <mxCell id="6" value="" style="curved=1;startArrow=none;endArrow=block;exitX=1;exitY=0.5;entryX=0;entryY=0.31;" edge="1" parent="1" source="3" target="4">
          <mxGeometry relative="1" as="geometry">
            <Array as="points">
              <mxPoint x="285" y="36" />
            </Array>
          </mxGeometry>
        </mxCell>
        <mxCell id="7" value="" style="curved=1;startArrow=none;endArrow=block;exitX=0;exitY=0.69;entryX=1;entryY=0.94;" edge="1" parent="1" source="4" target="2">
          <mxGeometry relative="1" as="geometry">
            <Array as="points">
              <mxPoint x="285" y="100" />
              <mxPoint x="178" y="100" />
            </Array>
          </mxGeometry>
        </mxCell>
      </root>
    </mxGraphModel>
  </diagram>
</mxfile>
